<svg width="1424" height="403" viewBox="0 0 1424 403" fill="none" xmlns="http://www.w3.org/2000/svg">
<rect width="1424" height="403" fill="white"/>
<text fill="black" xml:space="preserve" style="white-space: pre" font-family="Roboto" font-size="30" font-weight="500" letter-spacing="0em"><tspan x="1" y="39.7539">Curve</tspan></text>
<text fill="black" xml:space="preserve" style="white-space: pre" font-family="Roboto" font-size="30" font-weight="500" letter-spacing="0em"><tspan x="360" y="40.7539">Circle</tspan></text>
<text fill="black" xml:space="preserve" style="white-space: pre" font-family="Roboto" font-size="30" font-weight="500" letter-spacing="0em"><tspan x="717" y="39.7539">Spiral</tspan></text>
<text fill="black" xml:space="preserve" style="white-space: pre" font-family="Roboto" font-size="30" font-weight="500" letter-spacing="0em"><tspan x="1077" y="39.7539">Evolute</tspan></text>
<rect x="1.5" y="67.4883" width="58.3989" height="58.3989" fill="#F6F6F9" stroke="#D6D9E4"/>
<rect x="1.5" y="132.827" width="58.3989" height="58.3989" fill="#F6F6F9" stroke="#D6D9E4"/>
<rect x="1.5" y="198.166" width="58.3989" height="57.6564" fill="#F6F6F9" stroke="#D6D9E4"/>
<rect x="1.5" y="262.763" width="58.3989" height="58.3989" fill="#F6F6F9" stroke="#D6D9E4"/>
<rect x="1.5" y="328.101" width="58.3989" height="58.3989" fill="#F6F6F9" stroke="#D6D9E4"/>
<rect x="67.5813" y="67.4883" width="57.6564" height="58.3989" fill="#F6F6F9" stroke="#D6D9E4"/>
<rect x="199.001" y="67.4883" width="58.3989" height="58.3989" fill="#F6F6F9" stroke="#D6D9E4"/>
<rect x="67.5813" y="132.827" width="57.6564" height="58.3989" fill="#F6F6F9" stroke="#D6D9E4"/>
<rect x="199.001" y="132.827" width="58.3989" height="58.3989" fill="#F6F6F9" stroke="#D6D9E4"/>
<rect x="67.5813" y="198.166" width="57.6564" height="57.6564" fill="#F6F6F9" stroke="#D6D9E4"/>
<rect x="199.001" y="198.166" width="58.3989" height="57.6564" fill="#F6F6F9" stroke="#D6D9E4"/>
<rect x="67.5813" y="262.763" width="57.6564" height="58.3989" fill="#F6F6F9" stroke="#D6D9E4"/>
<rect x="199.001" y="262.763" width="58.3989" height="58.3989" fill="#F6F6F9" stroke="#D6D9E4"/>
<rect x="67.5813" y="328.101" width="57.6564" height="58.3989" fill="#F6F6F9" stroke="#D6D9E4"/>
<rect x="199.001" y="328.101" width="58.3989" height="58.3989" fill="#F6F6F9" stroke="#D6D9E4"/>
<rect x="132.92" y="67.4883" width="58.3989" height="58.3989" fill="#F6F6F9" stroke="#D6D9E4"/>
<rect x="265.083" y="67.4883" width="58.3989" height="58.3989" fill="#F6F6F9" stroke="#D6D9E4"/>
<rect x="132.92" y="132.827" width="58.3989" height="58.3989" fill="#F6F6F9" stroke="#D6D9E4"/>
<rect x="265.083" y="132.827" width="58.3989" height="58.3989" fill="#F6F6F9" stroke="#D6D9E4"/>
<rect x="132.92" y="198.166" width="58.3989" height="57.6564" fill="#F6F6F9" stroke="#D6D9E4"/>
<rect x="265.083" y="198.166" width="58.3989" height="57.6564" fill="#F6F6F9" stroke="#D6D9E4"/>
<rect x="132.92" y="262.763" width="58.3989" height="58.3989" fill="#F6F6F9" stroke="#D6D9E4"/>
<rect x="265.083" y="262.763" width="58.3989" height="58.3989" fill="#F6F6F9" stroke="#D6D9E4"/>
<rect x="132.92" y="328.101" width="58.3989" height="58.3989" fill="#F6F6F9" stroke="#D6D9E4"/>
<rect x="265.083" y="328.101" width="58.3989" height="58.3989" fill="#F6F6F9" stroke="#D6D9E4"/>
<rect x="361.606" y="67.4883" width="58.3989" height="58.3989" fill="#F6F6F9" stroke="#D6D9E4"/>
<rect x="361.606" y="132.827" width="58.3989" height="58.3989" fill="#F6F6F9" stroke="#D6D9E4"/>
<rect x="361.606" y="198.166" width="58.3989" height="57.6564" fill="#F6F6F9" stroke="#D6D9E4"/>
<rect x="361.606" y="262.763" width="58.3989" height="58.3989" fill="#F6F6F9" stroke="#D6D9E4"/>
<rect x="361.606" y="328.101" width="58.3989" height="58.3989" fill="#F6F6F9" stroke="#D6D9E4"/>
<rect x="427.687" y="67.4883" width="57.6564" height="58.3989" fill="#F6F6F9" stroke="#D6D9E4"/>
<rect x="559.107" y="67.4883" width="58.3989" height="58.3989" fill="#F6F6F9" stroke="#D6D9E4"/>
<rect x="427.687" y="132.827" width="57.6564" height="58.3989" fill="#F6F6F9" stroke="#D6D9E4"/>
<rect x="559.107" y="132.827" width="58.3989" height="58.3989" fill="#F6F6F9" stroke="#D6D9E4"/>
<rect x="427.687" y="198.166" width="57.6564" height="57.6564" fill="#F6F6F9" stroke="#D6D9E4"/>
<rect x="559.107" y="198.166" width="58.3989" height="57.6564" fill="#F6F6F9" stroke="#D6D9E4"/>
<rect x="427.687" y="262.763" width="57.6564" height="58.3989" fill="#F6F6F9" stroke="#D6D9E4"/>
<rect x="559.107" y="262.763" width="58.3989" height="58.3989" fill="#F6F6F9" stroke="#D6D9E4"/>
<rect x="427.687" y="328.101" width="57.6564" height="58.3989" fill="#F6F6F9" stroke="#D6D9E4"/>
<rect x="559.107" y="328.101" width="58.3989" height="58.3989" fill="#F6F6F9" stroke="#D6D9E4"/>
<rect x="493.026" y="67.4883" width="58.3989" height="58.3989" fill="#F6F6F9" stroke="#D6D9E4"/>
<rect x="625.189" y="67.4883" width="58.3989" height="58.3989" fill="#F6F6F9" stroke="#D6D9E4"/>
<rect x="493.026" y="132.827" width="58.3989" height="58.3989" fill="#F6F6F9" stroke="#D6D9E4"/>
<rect x="625.189" y="132.827" width="58.3989" height="58.3989" fill="#F6F6F9" stroke="#D6D9E4"/>
<rect x="493.026" y="198.166" width="58.3989" height="57.6564" fill="#F6F6F9" stroke="#D6D9E4"/>
<rect x="625.189" y="198.166" width="58.3989" height="57.6564" fill="#F6F6F9" stroke="#D6D9E4"/>
<rect x="493.026" y="262.763" width="58.3989" height="58.3989" fill="#F6F6F9" stroke="#D6D9E4"/>
<rect x="625.189" y="262.763" width="58.3989" height="58.3989" fill="#F6F6F9" stroke="#D6D9E4"/>
<rect x="493.026" y="328.101" width="58.3989" height="58.3989" fill="#F6F6F9" stroke="#D6D9E4"/>
<rect x="625.189" y="328.101" width="58.3989" height="58.3989" fill="#F6F6F9" stroke="#D6D9E4"/>
<rect x="719.485" y="67.4883" width="58.3989" height="58.3989" fill="#F6F6F9" stroke="#D6D9E4"/>
<rect x="719.485" y="132.827" width="58.3989" height="58.3989" fill="#F6F6F9" stroke="#D6D9E4"/>
<rect x="719.485" y="198.166" width="58.3989" height="57.6564" fill="#F6F6F9" stroke="#D6D9E4"/>
<rect x="719.485" y="262.763" width="58.3989" height="58.3989" fill="#F6F6F9" stroke="#D6D9E4"/>
<rect x="719.485" y="328.101" width="58.3989" height="58.3989" fill="#F6F6F9" stroke="#D6D9E4"/>
<rect x="785.566" y="67.4883" width="57.6564" height="58.3989" fill="#F6F6F9" stroke="#D6D9E4"/>
<rect x="916.986" y="67.4883" width="58.3989" height="58.3989" fill="#F6F6F9" stroke="#D6D9E4"/>
<rect x="785.566" y="132.827" width="57.6564" height="58.3989" fill="#F6F6F9" stroke="#D6D9E4"/>
<rect x="916.986" y="132.827" width="58.3989" height="58.3989" fill="#F6F6F9" stroke="#D6D9E4"/>
<rect x="785.566" y="198.166" width="57.6564" height="57.6564" fill="#F6F6F9" stroke="#D6D9E4"/>
<rect x="916.986" y="198.166" width="58.3989" height="57.6564" fill="#F6F6F9" stroke="#D6D9E4"/>
<rect x="785.566" y="262.763" width="57.6564" height="58.3989" fill="#F6F6F9" stroke="#D6D9E4"/>
<rect x="916.986" y="262.763" width="58.3989" height="58.3989" fill="#F6F6F9" stroke="#D6D9E4"/>
<rect x="785.566" y="328.101" width="57.6564" height="58.3989" fill="#F6F6F9" stroke="#D6D9E4"/>
<rect x="916.986" y="328.101" width="58.3989" height="58.3989" fill="#F6F6F9" stroke="#D6D9E4"/>
<rect x="850.905" y="67.4883" width="58.3989" height="58.3989" fill="#F6F6F9" stroke="#D6D9E4"/>
<rect x="983.067" y="67.4883" width="58.3989" height="58.3989" fill="#F6F6F9" stroke="#D6D9E4"/>
<rect x="850.905" y="132.827" width="58.3989" height="58.3989" fill="#F6F6F9" stroke="#D6D9E4"/>
<rect x="983.067" y="132.827" width="58.3989" height="58.3989" fill="#F6F6F9" stroke="#D6D9E4"/>
<rect x="850.905" y="198.166" width="58.3989" height="57.6564" fill="#F6F6F9" stroke="#D6D9E4"/>
<rect x="983.067" y="198.166" width="58.3989" height="57.6564" fill="#F6F6F9" stroke="#D6D9E4"/>
<rect x="850.905" y="262.763" width="58.3989" height="58.3989" fill="#F6F6F9" stroke="#D6D9E4"/>
<rect x="983.067" y="262.763" width="58.3989" height="58.3989" fill="#F6F6F9" stroke="#D6D9E4"/>
<rect x="850.905" y="328.101" width="58.3989" height="58.3989" fill="#F6F6F9" stroke="#D6D9E4"/>
<rect x="983.067" y="328.101" width="58.3989" height="58.3989" fill="#F6F6F9" stroke="#D6D9E4"/>
<rect x="1080.78" y="67.4883" width="58.3989" height="58.3989" fill="#F6F6F9" stroke="#D6D9E4"/>
<rect x="1080.78" y="132.827" width="58.3989" height="58.3989" fill="#F6F6F9" stroke="#D6D9E4"/>
<rect x="1080.78" y="198.166" width="58.3989" height="57.6564" fill="#F6F6F9" stroke="#D6D9E4"/>
<rect x="1080.78" y="262.763" width="58.3989" height="58.3989" fill="#F6F6F9" stroke="#D6D9E4"/>
<rect x="1080.78" y="328.101" width="58.3989" height="58.3989" fill="#F6F6F9" stroke="#D6D9E4"/>
<rect x="1146.86" y="67.4883" width="57.6564" height="58.3989" fill="#F6F6F9" stroke="#D6D9E4"/>
<rect x="1278.28" y="67.4883" width="58.3989" height="58.3989" fill="#F6F6F9" stroke="#D6D9E4"/>
<rect x="1146.86" y="132.827" width="57.6564" height="58.3989" fill="#F6F6F9" stroke="#D6D9E4"/>
<rect x="1278.28" y="132.827" width="58.3989" height="58.3989" fill="#F6F6F9" stroke="#D6D9E4"/>
<rect x="1146.86" y="198.166" width="57.6564" height="57.6564" fill="#F6F6F9" stroke="#D6D9E4"/>
<rect x="1278.28" y="198.166" width="58.3989" height="57.6564" fill="#F6F6F9" stroke="#D6D9E4"/>
<rect x="1146.86" y="262.763" width="57.6564" height="58.3989" fill="#F6F6F9" stroke="#D6D9E4"/>
<rect x="1278.28" y="262.763" width="58.3989" height="58.3989" fill="#F6F6F9" stroke="#D6D9E4"/>
<rect x="1146.86" y="328.101" width="57.6564" height="58.3989" fill="#F6F6F9" stroke="#D6D9E4"/>
<rect x="1278.28" y="328.101" width="58.3989" height="58.3989" fill="#F6F6F9" stroke="#D6D9E4"/>
<rect x="1212.2" y="67.4883" width="58.3989" height="58.3989" fill="#F6F6F9" stroke="#D6D9E4"/>
<rect x="1344.36" y="67.4883" width="58.3989" height="58.3989" fill="#F6F6F9" stroke="#D6D9E4"/>
<rect x="1212.2" y="132.827" width="58.3989" height="58.3989" fill="#F6F6F9" stroke="#D6D9E4"/>
<rect x="1344.36" y="132.827" width="58.3989" height="58.3989" fill="#F6F6F9" stroke="#D6D9E4"/>
<rect x="1212.2" y="198.166" width="58.3989" height="57.6564" fill="#F6F6F9" stroke="#D6D9E4"/>
<rect x="1344.36" y="198.166" width="58.3989" height="57.6564" fill="#F6F6F9" stroke="#D6D9E4"/>
<rect x="1212.2" y="262.763" width="58.3989" height="58.3989" fill="#F6F6F9" stroke="#D6D9E4"/>
<rect x="1344.36" y="262.763" width="58.3989" height="58.3989" fill="#F6F6F9" stroke="#D6D9E4"/>
<rect x="1212.2" y="328.101" width="58.3989" height="58.3989" fill="#F6F6F9" stroke="#D6D9E4"/>
<rect x="1344.36" y="328.101" width="58.3989" height="58.3989" fill="#F6F6F9" stroke="#D6D9E4"/>
<path d="M159 209C169.847 220.755 169.485 231.408 159 245" stroke="#484848" stroke-width="4" stroke-linecap="round"/>
<path d="M222 209C232.847 220.755 232.485 231.408 222 245" stroke="#484848" stroke-width="4" stroke-linecap="round"/>
<path d="M394 245C383.153 233.245 383.515 222.592 394 209" stroke="#484848" stroke-width="4" stroke-linecap="round"/>
<path d="M1105 209C1115.85 220.755 1115.49 231.408 1105 245" stroke="#484848" stroke-width="4" stroke-linecap="round"/>
<path d="M461 245C448.797 233.245 449.204 222.592 461 209" stroke="#484848" stroke-width="4" stroke-linecap="round"/>
<path d="M1171 209C1183.2 220.755 1182.8 231.408 1171 245" stroke="#484848" stroke-width="4" stroke-linecap="round"/>
<path d="M389.326 180.27C381.946 165.754 385.306 155.519 399.478 145.333" stroke="#484848" stroke-width="4" stroke-linecap="round"/>
<path d="M1110.76 143.041C1118.14 157.557 1114.78 167.791 1100.61 177.978" stroke="#484848" stroke-width="4" stroke-linecap="round"/>
<path d="M1120.11 81.0947C1119.59 97.3703 1111.71 104.721 1094.39 106.821" stroke="#484848" stroke-width="4" stroke-linecap="round"/>
<path d="M444.133 177.968C444.658 161.692 452.534 154.342 469.859 152.242" stroke="#484848" stroke-width="4" stroke-linecap="round"/>
<path d="M936.9 173.837C937.425 157.561 945.3 150.211 962.626 148.111" stroke="#484848" stroke-width="4" stroke-linecap="round"/>
<path d="M938.935 111.763C939.46 95.4872 947.335 88.1369 964.661 86.0368" stroke="#484848" stroke-width="4" stroke-linecap="round"/>
<path d="M1002.03 173.837C1002.55 157.561 1010.43 150.211 1027.75 148.111" stroke="#484848" stroke-width="4" stroke-linecap="round"/>
<path d="M1183.22 146.434C1182.7 162.709 1174.82 170.059 1157.5 172.159" stroke="#484848" stroke-width="4" stroke-linecap="round"/>
<path d="M401.089 307.655C386.309 300.821 382.614 290.702 387.441 273.93" stroke="#484848" stroke-width="4" stroke-linecap="round"/>
<path d="M1099 277.012C1113.78 283.846 1117.47 293.965 1112.65 310.737" stroke="#484848" stroke-width="4" stroke-linecap="round"/>
<path d="M540.074 101.141C528.18 90.0193 517.414 90.405 503.693 101.19" stroke="#484848" stroke-width="4" stroke-linecap="round"/>
<path d="M1031.59 226.838C1019.7 215.717 1008.93 216.102 995.211 226.887" stroke="#484848" stroke-width="4" stroke-linecap="round"/>
<path d="M964.431 226.838C952.536 215.717 941.771 216.102 928.049 226.887" stroke="#484848" stroke-width="4" stroke-linecap="round"/>
<path d="M1259.25 92.9756C1247.35 104.097 1236.59 103.711 1222.87 92.9267" stroke="#484848" stroke-width="4" stroke-linecap="round"/>
<path d="M540.074 162.072C528.18 150.951 517.414 151.337 503.693 162.121" stroke="#484848" stroke-width="4" stroke-linecap="round"/>
<path d="M1259.25 153.908C1247.35 165.03 1236.59 164.644 1222.87 153.859" stroke="#484848" stroke-width="4" stroke-linecap="round"/>
<path d="M440.209 106.098C448.493 92.0785 458.932 89.419 475.134 95.9063" stroke="#484848" stroke-width="4" stroke-linecap="round"/>
<path d="M1192.01 88.0205C1183.72 102.04 1173.28 104.699 1157.08 98.2118" stroke="#484848" stroke-width="4" stroke-linecap="round"/>
<path d="M568.617 95.4717C583.309 88.4494 593.459 92.0597 603.295 106.476" stroke="#484848" stroke-width="4" stroke-linecap="round"/>
<path d="M1324.95 98.6475C1310.26 105.67 1300.11 102.059 1290.27 87.6429" stroke="#484848" stroke-width="4" stroke-linecap="round"/>
<path d="M1390.2 104.712C1374.01 106.471 1365.63 99.7021 1361.13 82.8412" stroke="#484848" stroke-width="4" stroke-linecap="round"/>
<path d="M569.002 154.484C585.191 152.726 593.571 159.494 598.076 176.355" stroke="#484848" stroke-width="4" stroke-linecap="round"/>
<path d="M933.126 282.174C949.315 280.415 957.696 287.184 962.201 304.045" stroke="#484848" stroke-width="4" stroke-linecap="round"/>
<path d="M997.236 284.209C1013.42 282.45 1021.8 289.219 1026.31 306.08" stroke="#484848" stroke-width="4" stroke-linecap="round"/>
<path d="M931.091 347.301C947.28 345.542 955.66 352.311 960.166 369.172" stroke="#484848" stroke-width="4" stroke-linecap="round"/>
<path d="M1322.19 169.79C1306 171.549 1297.62 164.78 1293.11 147.919" stroke="#484848" stroke-width="4" stroke-linecap="round"/>
<path d="M503.625 353.154C515.677 364.105 526.436 363.566 540.002 352.587" stroke="#484848" stroke-width="4" stroke-linecap="round"/>
<path d="M797.785 224.279C809.837 235.23 820.596 234.691 834.162 223.712" stroke="#484848" stroke-width="4" stroke-linecap="round"/>
<path d="M729.605 224.279C741.658 235.23 752.416 234.691 765.983 223.712" stroke="#484848" stroke-width="4" stroke-linecap="round"/>
<path d="M1222.8 360.799C1234.85 349.848 1245.61 350.387 1259.17 361.366" stroke="#484848" stroke-width="4" stroke-linecap="round"/>
<path d="M503.625 288.074C515.677 299.025 526.436 298.486 540.002 287.507" stroke="#484848" stroke-width="4" stroke-linecap="round"/>
<path d="M1222.8 295.721C1234.85 284.77 1245.61 285.309 1259.17 296.288" stroke="#484848" stroke-width="4" stroke-linecap="round"/>
<path d="M474.991 359.927C459.823 365.85 449.966 361.503 441.217 346.402" stroke="#484848" stroke-width="4" stroke-linecap="round"/>
<path d="M1157.34 354.027C1172.5 348.104 1182.36 352.451 1191.11 367.552" stroke="#484848" stroke-width="4" stroke-linecap="round"/>
<path d="M1094.39 344.891C1110.59 346.494 1117.4 354.84 1118.35 372.266" stroke="#484848" stroke-width="4" stroke-linecap="round"/>
<path d="M474.408 303.004C458.203 301.4 451.392 293.055 450.445 275.628" stroke="#484848" stroke-width="4" stroke-linecap="round"/>
<path d="M829.964 173.749C813.759 172.145 806.947 163.8 806.001 146.373" stroke="#484848" stroke-width="4" stroke-linecap="round"/>
<path d="M827.928 107.605C811.724 106.002 804.912 97.6563 803.966 80.2296" stroke="#484848" stroke-width="4" stroke-linecap="round"/>
<path d="M759.749 172.731C743.544 171.128 736.733 162.782 735.787 145.356" stroke="#484848" stroke-width="4" stroke-linecap="round"/>
<path d="M1163.44 281.038C1179.64 282.642 1186.45 290.987 1187.4 308.414" stroke="#484848" stroke-width="4" stroke-linecap="round"/>
<path d="M601.072 344.451C596.209 359.992 586.653 364.966 569.398 362.351" stroke="#484848" stroke-width="4" stroke-linecap="round"/>
<path d="M1292.61 369.503C1297.47 353.962 1307.03 348.988 1324.29 351.603" stroke="#484848" stroke-width="4" stroke-linecap="round"/>
<path d="M1363.05 372.589C1363.83 356.323 1371.81 349.096 1389.17 347.265" stroke="#484848" stroke-width="4" stroke-linecap="round"/>
<path d="M599.579 275.627C598.801 291.892 590.813 299.12 573.457 300.951" stroke="#484848" stroke-width="4" stroke-linecap="round"/>
<path d="M825.941 276.627C825.164 292.892 817.176 300.12 799.82 301.951" stroke="#484848" stroke-width="4" stroke-linecap="round"/>
<path d="M825.941 342.771C825.164 359.037 817.176 366.264 799.82 368.095" stroke="#484848" stroke-width="4" stroke-linecap="round"/>
<path d="M760.815 280.697C760.038 296.963 752.049 304.19 734.693 306.021" stroke="#484848" stroke-width="4" stroke-linecap="round"/>
<path d="M1298.35 306.85C1299.12 290.584 1307.11 283.357 1324.47 281.526" stroke="#484848" stroke-width="4" stroke-linecap="round"/>
<path d="M649 245C661.203 233.245 660.796 222.592 649 209" stroke="#484848" stroke-width="4" stroke-linecap="round"/>
<path d="M877 311C889.203 299.571 888.796 289.214 877 276" stroke="#484848" stroke-width="4" stroke-linecap="round"/>
<path d="M877 374C889.203 362.571 888.796 352.214 877 339" stroke="#484848" stroke-width="4" stroke-linecap="round"/>
<path d="M886 179C873.797 167.245 874.204 156.592 886 143" stroke="#484848" stroke-width="4" stroke-linecap="round"/>
<path d="M886 114C873.797 102.245 874.204 91.5918 886 78" stroke="#484848" stroke-width="4" stroke-linecap="round"/>
<path d="M1377 245C1366.15 233.245 1366.51 222.592 1377 209" stroke="#484848" stroke-width="4" stroke-linecap="round"/>
<path d="M589 245C599.847 233.245 599.485 222.592 589 209" stroke="#484848" stroke-width="4" stroke-linecap="round"/>
<path d="M1316 245C1306.51 233.245 1306.83 222.592 1316 209" stroke="#484848" stroke-width="4" stroke-linecap="round"/>
<path d="M653.159 273.156C659.18 288.286 654.896 298.171 639.852 307.017" stroke="#484848" stroke-width="4" stroke-linecap="round"/>
<path d="M1366.67 310.024C1360.65 294.894 1364.93 285.01 1379.98 276.164" stroke="#484848" stroke-width="4" stroke-linecap="round"/>
<path d="M640.091 146.068C654.693 153.277 658.128 163.487 652.875 180.13" stroke="#484848" stroke-width="4" stroke-linecap="round"/>
<path d="M1379.74 177.242C1365.14 170.034 1361.7 159.824 1366.95 143.18" stroke="#484848" stroke-width="4" stroke-linecap="round"/>
<path d="M165.356 273.061C171.971 287.941 168.082 297.987 153.399 307.421" stroke="#484848" stroke-width="4" stroke-linecap="round"/>
<path d="M228.278 273.061C234.892 287.941 231.003 297.987 216.321 307.421" stroke="#484848" stroke-width="4" stroke-linecap="round"/>
<path d="M106.662 274.189C109.308 290.257 103.011 298.997 86.4235 304.423" stroke="#484848" stroke-width="4" stroke-linecap="round"/>
<path d="M104.839 337.85C109.122 353.56 103.755 362.901 87.8123 370.001" stroke="#484848" stroke-width="4" stroke-linecap="round"/>
<path d="M163.554 337.85C167.837 353.56 162.47 362.901 146.527 370.001" stroke="#484848" stroke-width="4" stroke-linecap="round"/>
<path d="M154.315 145.29C168.285 153.657 170.883 164.112 164.3 180.275" stroke="#484848" stroke-width="4" stroke-linecap="round"/>
<path d="M217.237 145.29C231.207 153.657 233.804 164.112 227.222 180.275" stroke="#484848" stroke-width="4" stroke-linecap="round"/>
<path d="M82.8558 83.5322C98.7322 87.1531 104.445 96.2862 103.2 113.694" stroke="#484848" stroke-width="4" stroke-linecap="round"/>
<path d="M147.27 83.5322C163.146 87.1531 168.859 96.2862 167.614 113.694" stroke="#484848" stroke-width="4" stroke-linecap="round"/>
<path d="M82.5446 145.665C98.5053 148.894 104.441 157.883 103.626 175.316" stroke="#484848" stroke-width="4" stroke-linecap="round"/>
</svg>
